<svg width="31" height="34" viewBox="0 0 31 34" fill="none" xmlns="http://www.w3.org/2000/svg"><path d="M2.616 20.2a1.62 1.62 0 0 1-1.458-.91 1.59 1.59 0 0 1 .202-1.698L17.304 1.276a.806.806 0 0 1 1.385.736l-3.092 9.63a1.59 1.59 0 0 0 .765 1.978c.231.12.488.182.749.18h11.273a1.62 1.62 0 0 1 1.458.91 1.59 1.59 0 0 1-.202 1.698L13.696 32.724a.807.807 0 0 1-1.385-.736l3.092-9.63a1.59 1.59 0 0 0-.765-1.978 1.6 1.6 0 0 0-.748-.18z" stroke="url(#a)" stroke-width="1.5" stroke-linecap="round" stroke-linejoin="round"></path><defs><linearGradient id="a" x1="15.5" y1="1" x2="15.5" y2="33" gradientUnits="userSpaceOnUse"><stop stop-color="#E60076"></stop><stop offset="1" stop-color="#FB64B6"></stop></linearGradient></defs></svg>